<svg width="84" height="17" viewBox="0 0 84 17" fill="none" xmlns="http://www.w3.org/2000/svg">
<path d="M0.264205 1.45455H4.05682L8.0625 11.2273H8.23295L12.2386 1.45455H16.0312V16H13.0483V6.53267H12.9276L9.16335 15.929H7.1321L3.3679 6.49716H3.24716V16H0.264205V1.45455ZM21.619 16.206C20.9229 16.206 20.3027 16.0852 19.7582 15.8438C19.2137 15.5975 18.7828 15.2353 18.4656 14.7571C18.1531 14.2741 17.9968 13.6728 17.9968 12.9531C17.9968 12.3471 18.1081 11.8381 18.3306 11.4261C18.5531 11.0142 18.8562 10.6828 19.2397 10.4318C19.6232 10.1809 20.0588 9.99148 20.5465 9.86364C21.0389 9.7358 21.555 9.64583 22.0948 9.59375C22.7293 9.52746 23.2406 9.46591 23.6289 9.40909C24.0172 9.34754 24.2989 9.25758 24.4741 9.1392C24.6493 9.02083 24.7369 8.84564 24.7369 8.61364V8.57102C24.7369 8.12121 24.5948 7.7732 24.3107 7.52699C24.0314 7.28078 23.6336 7.15767 23.1175 7.15767C22.573 7.15767 22.1398 7.27841 21.8178 7.51989C21.4959 7.75663 21.2828 8.05492 21.1786 8.41477L18.3803 8.1875C18.5224 7.52462 18.8017 6.9517 19.2184 6.46875C19.6351 5.98106 20.1725 5.60701 20.8306 5.34659C21.4935 5.08144 22.2605 4.94886 23.1317 4.94886C23.7378 4.94886 24.3178 5.01989 24.8718 5.16193C25.4305 5.30398 25.9253 5.52415 26.3562 5.82244C26.7918 6.12074 27.1351 6.50426 27.386 6.97301C27.637 7.43703 27.7624 7.99337 27.7624 8.64205V16H24.8931V14.4872H24.8079C24.6327 14.8281 24.3983 15.1288 24.1048 15.3892C23.8112 15.6449 23.4585 15.8461 23.0465 15.9929C22.6346 16.1349 22.1587 16.206 21.619 16.206ZM22.4854 14.1179C22.9305 14.1179 23.3235 14.0303 23.6644 13.8551C24.0053 13.6752 24.2728 13.4337 24.467 13.1307C24.6611 12.8277 24.7582 12.4844 24.7582 12.1009V10.9432C24.6635 11.0047 24.5333 11.0616 24.3675 11.1136C24.2066 11.161 24.0243 11.206 23.8207 11.2486C23.6171 11.2865 23.4135 11.322 23.2099 11.3551C23.0063 11.3835 22.8216 11.4096 22.6559 11.4332C22.3008 11.4853 21.9906 11.5682 21.7255 11.6818C21.4603 11.7955 21.2544 11.9493 21.1076 12.1435C20.9608 12.3329 20.8874 12.5696 20.8874 12.8537C20.8874 13.2656 21.0366 13.5805 21.3349 13.7983C21.6379 14.0114 22.0214 14.1179 22.4854 14.1179ZM35.9762 5.09091V7.36364H29.2433V5.09091H35.9762ZM30.7844 16V4.30256C30.7844 3.51184 30.9383 2.85606 31.2461 2.33523C31.5586 1.81439 31.9847 1.42377 32.5245 1.16335C33.0643 0.902935 33.6774 0.772726 34.364 0.772726C34.828 0.772726 35.2518 0.808238 35.6353 0.879261C36.0236 0.950284 36.3124 1.0142 36.5018 1.07102L35.962 3.34375C35.8436 3.30587 35.6969 3.27036 35.5217 3.23722C35.3512 3.20407 35.176 3.1875 34.9961 3.1875C34.551 3.1875 34.2409 3.29167 34.0657 3.5C33.8905 3.7036 33.8029 3.99006 33.8029 4.35938V16H30.7844ZM42.3629 16.2131C41.2597 16.2131 40.3056 15.9787 39.5007 15.5099C38.7005 15.0365 38.0826 14.3783 37.647 13.5355C37.2114 12.688 36.9936 11.7055 36.9936 10.5881C36.9936 9.46117 37.2114 8.47633 37.647 7.63352C38.0826 6.78598 38.7005 6.12784 39.5007 5.65909C40.3056 5.18561 41.2597 4.94886 42.3629 4.94886C43.4661 4.94886 44.4179 5.18561 45.218 5.65909C46.023 6.12784 46.6432 6.78598 47.0788 7.63352C47.5144 8.47633 47.7322 9.46117 47.7322 10.5881C47.7322 11.7055 47.5144 12.688 47.0788 13.5355C46.6432 14.3783 46.023 15.0365 45.218 15.5099C44.4179 15.9787 43.4661 16.2131 42.3629 16.2131ZM42.3771 13.8693C42.879 13.8693 43.2981 13.7273 43.6342 13.4432C43.9704 13.1544 44.2237 12.7614 44.3942 12.2642C44.5694 11.767 44.657 11.2012 44.657 10.5668C44.657 9.93229 44.5694 9.36648 44.3942 8.86932C44.2237 8.37216 43.9704 7.97917 43.6342 7.69034C43.2981 7.40151 42.879 7.2571 42.3771 7.2571C41.8705 7.2571 41.4444 7.40151 41.0987 7.69034C40.7578 7.97917 40.4998 8.37216 40.3246 8.86932C40.1541 9.36648 40.0689 9.93229 40.0689 10.5668C40.0689 11.2012 40.1541 11.767 40.3246 12.2642C40.4998 12.7614 40.7578 13.1544 41.0987 13.4432C41.4444 13.7273 41.8705 13.8693 42.3771 13.8693ZM52.7251 9.69318V16H49.6996V5.09091H52.5831V7.01562H52.7109C52.9524 6.38116 53.3572 5.87926 53.9254 5.50994C54.4936 5.13589 55.1825 4.94886 55.9922 4.94886C56.7498 4.94886 57.4103 5.11458 57.9737 5.44602C58.5372 5.77746 58.9751 6.25095 59.2876 6.86648C59.6001 7.47727 59.7564 8.20644 59.7564 9.05398V16H56.7308V9.59375C56.7356 8.92614 56.5651 8.4053 56.2195 8.03125C55.8738 7.65246 55.398 7.46307 54.7919 7.46307C54.3847 7.46307 54.0249 7.55066 53.7124 7.72585C53.4046 7.90104 53.1631 8.15672 52.9879 8.4929C52.8175 8.82434 52.7299 9.22443 52.7251 9.69318ZM71.2177 8.2017L68.4478 8.37216C68.4004 8.13542 68.2987 7.92235 68.1424 7.73295C67.9862 7.53883 67.7802 7.38494 67.5245 7.27131C67.2736 7.15294 66.9729 7.09375 66.6225 7.09375C66.1538 7.09375 65.7584 7.19318 65.4364 7.39205C65.1145 7.58617 64.9535 7.84659 64.9535 8.1733C64.9535 8.43371 65.0576 8.65388 65.266 8.83381C65.4743 9.01373 65.8318 9.15814 66.3384 9.26705L68.3129 9.66477C69.3735 9.88258 70.1642 10.233 70.685 10.7159C71.2058 11.1989 71.4663 11.8333 71.4663 12.6193C71.4663 13.3343 71.2556 13.9616 70.8342 14.5014C70.4175 15.0412 69.8446 15.4626 69.1154 15.7656C68.391 16.0639 67.5553 16.2131 66.6083 16.2131C65.1642 16.2131 64.0136 15.9124 63.1566 15.3111C62.3043 14.705 61.8048 13.8812 61.658 12.8395L64.6339 12.6832C64.7238 13.1236 64.9416 13.4598 65.2873 13.6918C65.6329 13.919 66.0756 14.0327 66.6154 14.0327C67.1457 14.0327 67.5719 13.9309 67.8938 13.7273C68.2205 13.5189 68.3862 13.2514 68.391 12.9247C68.3862 12.6501 68.2702 12.4252 68.043 12.25C67.8157 12.0701 67.4653 11.9328 66.9918 11.8381L65.1026 11.4616C64.0373 11.2486 63.2442 10.8793 62.7234 10.3537C62.2073 9.82812 61.9492 9.15814 61.9492 8.34375C61.9492 7.64299 62.1386 7.0393 62.5174 6.53267C62.9009 6.02604 63.4383 5.63542 64.1296 5.3608C64.8256 5.08617 65.64 4.94886 66.5728 4.94886C67.9506 4.94886 69.0349 5.24006 69.8256 5.82244C70.6211 6.40483 71.0851 7.19792 71.2177 8.2017ZM78.3004 16.2131C77.1972 16.2131 76.2431 15.9787 75.4382 15.5099C74.638 15.0365 74.0201 14.3783 73.5845 13.5355C73.1489 12.688 72.9311 11.7055 72.9311 10.5881C72.9311 9.46117 73.1489 8.47633 73.5845 7.63352C74.0201 6.78598 74.638 6.12784 75.4382 5.65909C76.2431 5.18561 77.1972 4.94886 78.3004 4.94886C79.4036 4.94886 80.3554 5.18561 81.1555 5.65909C81.9605 6.12784 82.5807 6.78598 83.0163 7.63352C83.4519 8.47633 83.6697 9.46117 83.6697 10.5881C83.6697 11.7055 83.4519 12.688 83.0163 13.5355C82.5807 14.3783 81.9605 15.0365 81.1555 15.5099C80.3554 15.9787 79.4036 16.2131 78.3004 16.2131ZM78.3146 13.8693C78.8165 13.8693 79.2356 13.7273 79.5717 13.4432C79.9079 13.1544 80.1612 12.7614 80.3317 12.2642C80.5069 11.767 80.5945 11.2012 80.5945 10.5668C80.5945 9.93229 80.5069 9.36648 80.3317 8.86932C80.1612 8.37216 79.9079 7.97917 79.5717 7.69034C79.2356 7.40151 78.8165 7.2571 78.3146 7.2571C77.808 7.2571 77.3819 7.40151 77.0362 7.69034C76.6953 7.97917 76.4373 8.37216 76.2621 8.86932C76.0916 9.36648 76.0064 9.93229 76.0064 10.5668C76.0064 11.2012 76.0916 11.767 76.2621 12.2642C76.4373 12.7614 76.6953 13.1544 77.0362 13.4432C77.3819 13.7273 77.808 13.8693 78.3146 13.8693Z" fill="#DF9506"/>
</svg>
